<?xml version="1.0" encoding="UTF-8"?>
<svg width="29.51mm" height="25.556mm" version="1.1" viewBox="0 0 29.51 25.556" xmlns="http://www.w3.org/2000/svg" xmlns:cc="http://creativecommons.org/ns#" xmlns:dc="http://purl.org/dc/elements/1.1/" xmlns:rdf="http://www.w3.org/1999/02/22-rdf-syntax-ns#">
 <defs>
  <clipPath id="clipPath2086">
   <rect x="182.19" y="-38.472" width="29.51" height="25.556" fill="#f00" opacity=".5" style="paint-order:stroke fill markers"/>
  </clipPath>
  <clipPath id="clipPath2090">
   <rect x="182.19" y="-38.472" width="29.51" height="25.556" fill="#f00" opacity=".5" style="paint-order:stroke fill markers"/>
  </clipPath>
  <clipPath id="clipPath2094">
   <rect x="182.19" y="-38.472" width="29.51" height="25.556" fill="#f00" opacity=".5" style="paint-order:stroke fill markers"/>
  </clipPath>
  <clipPath id="clipPath2098">
   <rect x="182.19" y="-38.472" width="29.51" height="25.556" fill="#f00" opacity=".5" style="paint-order:stroke fill markers"/>
  </clipPath>
  <clipPath id="clipPath2102">
   <rect x="182.19" y="-38.472" width="29.51" height="25.556" fill="#f00" opacity=".5" style="paint-order:stroke fill markers"/>
  </clipPath>
  <clipPath id="clipPath2106">
   <rect x="182.19" y="-38.472" width="29.51" height="25.556" fill="#f00" opacity=".5" style="paint-order:stroke fill markers"/>
  </clipPath>
  <clipPath id="clipPath2110">
   <rect x="182.19" y="-38.472" width="29.51" height="25.556" fill="#f00" opacity=".5" style="paint-order:stroke fill markers"/>
  </clipPath>
  <clipPath id="clipPath2114">
   <rect x="182.19" y="-38.472" width="29.51" height="25.556" fill="#f00" opacity=".5" style="paint-order:stroke fill markers"/>
  </clipPath>
  <clipPath id="clipPath2118">
   <rect x="182.19" y="-38.472" width="29.51" height="25.556" fill="#f00" opacity=".5" style="paint-order:stroke fill markers"/>
  </clipPath>
  <clipPath id="clipPath2122">
   <rect x="182.19" y="-38.472" width="29.51" height="25.556" fill="#f00" opacity=".5" style="paint-order:stroke fill markers"/>
  </clipPath>
  <clipPath id="clipPath2126">
   <rect x="182.19" y="-38.472" width="29.51" height="25.556" fill="#f00" opacity=".5" style="paint-order:stroke fill markers"/>
  </clipPath>
  <clipPath id="clipPath2130">
   <rect x="182.19" y="-38.472" width="29.51" height="25.556" fill="#f00" opacity=".5" style="paint-order:stroke fill markers"/>
  </clipPath>
  <clipPath id="clipPath2134">
   <rect x="182.19" y="-38.472" width="29.51" height="25.556" fill="#f00" opacity=".5" style="paint-order:stroke fill markers"/>
  </clipPath>
  <clipPath id="clipPath2138">
   <rect x="182.19" y="-38.472" width="29.51" height="25.556" fill="#f00" opacity=".5" style="paint-order:stroke fill markers"/>
  </clipPath>
  <clipPath id="clipPath2142">
   <rect x="182.19" y="-38.472" width="29.51" height="25.556" fill="#f00" opacity=".5" style="paint-order:stroke fill markers"/>
  </clipPath>
  <clipPath id="clipPath2146">
   <rect x="182.19" y="-38.472" width="29.51" height="25.556" fill="#f00" opacity=".5" style="paint-order:stroke fill markers"/>
  </clipPath>
  <clipPath id="clipPath2150">
   <rect x="182.19" y="-38.472" width="29.51" height="25.556" fill="#f00" opacity=".5" style="paint-order:stroke fill markers"/>
  </clipPath>
  <clipPath id="clipPath2154">
   <rect x="182.19" y="-38.472" width="29.51" height="25.556" fill="#f00" opacity=".5" style="paint-order:stroke fill markers"/>
  </clipPath>
  <clipPath id="clipPath2158">
   <rect x="182.19" y="-38.472" width="29.51" height="25.556" fill="#f00" opacity=".5" style="paint-order:stroke fill markers"/>
  </clipPath>
  <clipPath id="clipPath2162">
   <rect x="182.19" y="-38.472" width="29.51" height="25.556" fill="#f00" opacity=".5" style="paint-order:stroke fill markers"/>
  </clipPath>
  <clipPath id="clipPath2166">
   <rect x="182.19" y="-38.472" width="29.51" height="25.556" fill="#f00" opacity=".5" style="paint-order:stroke fill markers"/>
  </clipPath>
  <clipPath id="clipPath2170">
   <rect x="182.19" y="-38.472" width="29.51" height="25.556" fill="#f00" opacity=".5" style="paint-order:stroke fill markers"/>
  </clipPath>
  <clipPath id="clipPath2174">
   <rect x="182.19" y="-38.472" width="29.51" height="25.556" fill="#f00" opacity=".5" style="paint-order:stroke fill markers"/>
  </clipPath>
  <clipPath id="clipPath2178">
   <rect x="182.19" y="-38.472" width="29.51" height="25.556" fill="#f00" opacity=".5" style="paint-order:stroke fill markers"/>
  </clipPath>
  <clipPath id="clipPath2182">
   <rect x="182.19" y="-38.472" width="29.51" height="25.556" fill="#f00" opacity=".5" style="paint-order:stroke fill markers"/>
  </clipPath>
  <clipPath id="clipPath2186">
   <rect x="182.19" y="-38.472" width="29.51" height="25.556" fill="#f00" opacity=".5" style="paint-order:stroke fill markers"/>
  </clipPath>
  <clipPath id="clipPath2190">
   <rect x="182.19" y="-38.472" width="29.51" height="25.556" fill="#f00" opacity=".5" style="paint-order:stroke fill markers"/>
  </clipPath>
  <clipPath id="clipPath2194">
   <rect x="182.19" y="-38.472" width="29.51" height="25.556" fill="#f00" opacity=".5" style="paint-order:stroke fill markers"/>
  </clipPath>
  <clipPath id="clipPath2198">
   <rect x="182.19" y="-38.472" width="29.51" height="25.556" fill="#f00" opacity=".5" style="paint-order:stroke fill markers"/>
  </clipPath>
  <clipPath id="clipPath2202">
   <rect x="182.19" y="-38.472" width="29.51" height="25.556" fill="#f00" opacity=".5" style="paint-order:stroke fill markers"/>
  </clipPath>
  <clipPath id="clipPath2206">
   <rect x="182.19" y="-38.472" width="29.51" height="25.556" fill="#f00" opacity=".5" style="paint-order:stroke fill markers"/>
  </clipPath>
  <clipPath id="clipPath2210">
   <rect x="182.19" y="-38.472" width="29.51" height="25.556" fill="#f00" opacity=".5" style="paint-order:stroke fill markers"/>
  </clipPath>
  <clipPath id="clipPath2214">
   <rect x="182.19" y="-38.472" width="29.51" height="25.556" fill="#f00" opacity=".5" style="paint-order:stroke fill markers"/>
  </clipPath>
  <clipPath id="clipPath2218">
   <rect x="182.19" y="-38.472" width="29.51" height="25.556" fill="#f00" opacity=".5" style="paint-order:stroke fill markers"/>
  </clipPath>
  <clipPath id="clipPath2222">
   <rect x="182.19" y="-38.472" width="29.51" height="25.556" fill="#f00" opacity=".5" style="paint-order:stroke fill markers"/>
  </clipPath>
  <clipPath id="clipPath2226">
   <rect x="182.19" y="-38.472" width="29.51" height="25.556" fill="#f00" opacity=".5" style="paint-order:stroke fill markers"/>
  </clipPath>
  <clipPath id="clipPath2230">
   <rect x="182.19" y="-38.472" width="29.51" height="25.556" fill="#f00" opacity=".5" style="paint-order:stroke fill markers"/>
  </clipPath>
  <clipPath id="clipPath2234">
   <rect x="182.19" y="-38.472" width="29.51" height="25.556" fill="#f00" opacity=".5" style="paint-order:stroke fill markers"/>
  </clipPath>
  <clipPath id="clipPath2238">
   <rect x="182.19" y="-38.472" width="29.51" height="25.556" fill="#f00" opacity=".5" style="paint-order:stroke fill markers"/>
  </clipPath>
  <clipPath id="clipPath2242">
   <rect x="182.19" y="-38.472" width="29.51" height="25.556" fill="#f00" opacity=".5" style="paint-order:stroke fill markers"/>
  </clipPath>
  <clipPath id="clipPath2246">
   <rect x="182.19" y="-38.472" width="29.51" height="25.556" fill="#f00" opacity=".5" style="paint-order:stroke fill markers"/>
  </clipPath>
  <clipPath id="clipPath2206-9">
   <rect x="182.19" y="-38.472" width="29.51" height="25.556" fill="#f00" opacity=".5" style="paint-order:stroke fill markers"/>
  </clipPath>
  <clipPath id="clipPath2142-0">
   <rect x="182.19" y="-38.472" width="29.51" height="25.556" fill="#f00" opacity=".5" style="paint-order:stroke fill markers"/>
  </clipPath>
  <clipPath id="clipPath2218-0">
   <rect x="182.19" y="-38.472" width="29.51" height="25.556" fill="#f00" opacity=".5" style="paint-order:stroke fill markers"/>
  </clipPath>
  <clipPath id="clipPath2238-4">
   <rect x="182.19" y="-38.472" width="29.51" height="25.556" fill="#f00" opacity=".5" style="paint-order:stroke fill markers"/>
  </clipPath>
  <clipPath id="clipPath2202-9">
   <rect x="182.19" y="-38.472" width="29.51" height="25.556" fill="#f00" opacity=".5" style="paint-order:stroke fill markers"/>
  </clipPath>
  <clipPath id="clipPath2234-0">
   <rect x="182.19" y="-38.472" width="29.51" height="25.556" fill="#f00" opacity=".5" style="paint-order:stroke fill markers"/>
  </clipPath>
  <clipPath id="clipPath2246-1">
   <rect x="182.19" y="-38.472" width="29.51" height="25.556" fill="#f00" opacity=".5" style="paint-order:stroke fill markers"/>
  </clipPath>
 </defs>
 <metadata>
  <rdf:RDF>
   <cc:Work rdf:about="">
    <dc:format>image/svg+xml</dc:format>
    <dc:type rdf:resource="http://purl.org/dc/dcmitype/StillImage"/>
    <dc:title/>
   </cc:Work>
  </rdf:RDF>
 </metadata>
 <g transform="translate(-312.29 -69.57)" stroke-linecap="round">
  <g fill="#fff">
   <rect x="-82.562" y="-55.471" width="370.42" height="105.83" stroke="#fff" stroke-width="0.5" style="paint-order:stroke fill markers"/>
   <g stroke="#525252" stroke-width="1.3229">
    <path d="m-41.776-32.713-7.3775 4.2594-7.3775-4.2594v-8.5188l7.3775-4.2594 7.3775 4.2594z" style="paint-order:stroke fill markers"/>
    <path d="m-34.398-45.491-7.3775 4.2594-7.3775-4.2594v-8.5188l7.3775-4.2594 7.3775 4.2594z" style="paint-order:stroke fill markers"/>
    <path d="m-34.398-19.935-7.3775 4.2594-7.3775-4.2594v-8.5188l7.3775-4.2594 7.3775 4.2594z" style="paint-order:stroke fill markers"/>
    <path d="m-27.021-32.713-7.3775 4.2594-7.3775-4.2594v-8.5188l7.3775-4.2594 7.3775 4.2594z" style="paint-order:stroke fill markers"/>
    <path d="m-19.643-45.491-7.3775 4.2594-7.3775-4.2594 1e-6 -8.5188 7.3775-4.2594 7.3775 4.2594z" style="paint-order:stroke fill markers"/>
    <path d="m-12.266-58.269-7.3775 4.2594-7.3775-4.2594v-8.5188l7.3775-4.2594 7.3775 4.2594z" style="paint-order:stroke fill markers"/>
    <path d="m-49.153 5.6215-7.3775 4.2594-7.3775-4.2594v-8.5188l7.3775-4.2594 7.3775 4.2594z" style="paint-order:stroke fill markers"/>
    <path d="m-41.776-7.1567-7.3775 4.2594-7.3775-4.2594v-8.5188l7.3775-4.2594 7.3775 4.2594z" style="paint-order:stroke fill markers"/>
    <path d="m-41.776 18.4-7.3775 4.2594-7.3775-4.2594v-8.5188l7.3775-4.2594 7.3775 4.2594z" style="paint-order:stroke fill markers"/>
    <path d="m-34.398 5.6215-7.3775 4.2594-7.3775-4.2594v-8.5188l7.3775-4.2594 7.3775 4.2594z" style="paint-order:stroke fill markers"/>
    <path d="m-27.021-7.1567-7.3775 4.2594-7.3775-4.2594v-8.5188l7.3775-4.2594 7.3775 4.2594z" style="paint-order:stroke fill markers"/>
    <path d="m-19.643-19.935-7.3775 4.2594-7.3775-4.2594 1e-6 -8.5188 7.3775-4.2594 7.3775 4.2594z" style="paint-order:stroke fill markers"/>
    <path d="m-12.266-32.713-7.3775 4.2594-7.3775-4.2594v-8.5188l7.3775-4.2594 7.3775 4.2594z" style="paint-order:stroke fill markers"/>
    <path d="m-4.8883-45.491-7.3775 4.2594-7.3775-4.2594v-8.5188l7.3775-4.2594 7.3775 4.2594z" style="paint-order:stroke fill markers"/>
    <path d="m10.955 28.395-7.3775 4.2594-7.3775-4.2594v-8.5188l7.3775-4.2594 7.3775 4.2594z" style="paint-order:stroke fill markers"/>
    <path d="m18.333 15.617-7.3775 4.2594-7.3775-4.2594 1e-7 -8.5188 7.3775-4.2594 7.3775 4.2594z" style="paint-order:stroke fill markers"/>
    <path d="m18.333 41.173-7.3775 4.2594-7.3775-4.2594 1e-7 -8.5188 7.3775-4.2594 7.3775 4.2594z" style="paint-order:stroke fill markers"/>
    <path d="m25.71 28.395-7.3775 4.2594-7.3775-4.2594v-8.5188l7.3775-4.2594 7.3775 4.2594z" style="paint-order:stroke fill markers"/>
    <path d="m33.088 15.617-7.3775 4.2594-7.3775-4.2594v-8.5188l7.3775-4.2594 7.3775 4.2594z" style="paint-order:stroke fill markers"/>
    <path d="m40.465 2.839-7.3775 4.2594-7.3775-4.2594v-8.5188l7.3775-4.2594 7.3775 4.2594z" style="paint-order:stroke fill markers"/>
    <path d="m3.5778 66.73-7.3775 4.2594-7.3775-4.2594v-8.5188l7.3775-4.2594 7.3775 4.2594z" style="paint-order:stroke fill markers"/>
    <path d="m10.955 53.952-7.3775 4.2594-7.3775-4.2594v-8.5188l7.3775-4.2594 7.3775 4.2594z" style="paint-order:stroke fill markers"/>
    <path d="m10.955 79.508-7.3775 4.2594-7.3775-4.2594v-8.5188l7.3775-4.2594 7.3775 4.2594z" style="paint-order:stroke fill markers"/>
    <path d="m18.333 66.73-7.3775 4.2594-7.3775-4.2594 1e-7 -8.5188 7.3775-4.2594 7.3775 4.2594z" style="paint-order:stroke fill markers"/>
    <path d="m25.71 53.952-7.3775 4.2594-7.3775-4.2594v-8.5188l7.3775-4.2594 7.3775 4.2594z" style="paint-order:stroke fill markers"/>
    <path d="m33.088 41.174-7.3775 4.2594-7.3775-4.2594v-8.5188l7.3775-4.2594 7.3775 4.2594z" style="paint-order:stroke fill markers"/>
    <path d="m40.465 28.395-7.3775 4.2594-7.3775-4.2594v-8.5188l7.3775-4.2594 7.3775 4.2594z" style="paint-order:stroke fill markers"/>
    <path d="m47.843 15.617-7.3775 4.2594-7.3775-4.2594v-8.5188l7.3775-4.2594 7.3775 4.2594z" style="paint-order:stroke fill markers"/>
    <path d="m55.22 2.839-7.3775 4.2594-7.3775-4.2594v-8.5188l7.3775-4.2594 7.3775 4.2594z" style="paint-order:stroke fill markers"/>
    <path d="m62.598-9.9391-7.3775 4.2594-7.3775-4.2594v-8.5188l7.3775-4.2594 7.3775 4.2594z" style="paint-order:stroke fill markers"/>
    <path d="m62.598 15.617-7.3775 4.2594-7.3775-4.2594v-8.5188l7.3775-4.2594 7.3775 4.2594z" style="paint-order:stroke fill markers"/>
    <path d="m69.975 2.839-7.3775 4.2594-7.3775-4.2594v-8.5188l7.3775-4.2594 7.3775 4.2594z" style="paint-order:stroke fill markers"/>
    <path d="m77.352-9.9391-7.3775 4.2594-7.3775-4.2594v-8.5188l7.3775-4.2594 7.3775 4.2594z" style="paint-order:stroke fill markers"/>
    <path d="m84.73-22.717-7.3775 4.2594-7.3775-4.2594v-8.5188l7.3775-4.2594 7.3775 4.2594z" style="paint-order:stroke fill markers"/>
    <path d="m47.843 41.173-7.3775 4.2594-7.3775-4.2594v-8.5188l7.3775-4.2594 7.3775 4.2594z" style="paint-order:stroke fill markers"/>
    <path d="m55.22 28.395-7.3775 4.2594-7.3775-4.2594v-8.5188l7.3775-4.2594 7.3775 4.2594z" style="paint-order:stroke fill markers"/>
    <path d="m55.22 53.952-7.3775 4.2594-7.3775-4.2594v-8.5188l7.3775-4.2594 7.3775 4.2594z" style="paint-order:stroke fill markers"/>
    <path d="m62.598 41.173-7.3775 4.2594-7.3775-4.2594v-8.5188l7.3775-4.2594 7.3775 4.2594z" style="paint-order:stroke fill markers"/>
    <path d="m69.975 28.395-7.3775 4.2594-7.3775-4.2594v-8.5188l7.3775-4.2594 7.3775 4.2594z" style="paint-order:stroke fill markers"/>
    <path d="m77.352 15.617-7.3775 4.2594-7.3775-4.2594v-8.5188l7.3775-4.2594 7.3775 4.2594z" style="paint-order:stroke fill markers"/>
    <path d="m84.73 2.839-7.3775 4.2594-7.3775-4.2594v-8.5188l7.3775-4.2594 7.3775 4.2594z" style="paint-order:stroke fill markers"/>
    <path d="m92.107-9.9391-7.3775 4.2594-7.3775-4.2594v-8.5188l7.3775-4.2594 7.3775 4.2594z" style="paint-order:stroke fill markers"/>
    <path d="m196.94-29.953-7.3775 4.2594-7.3775-4.2594v-8.5188l7.3775-4.2594 7.3775 4.2594z" clip-path="url(#clipPath2246)" style="paint-order:stroke fill markers"/>
    <path d="m204.32-42.731-7.3775 4.2594-7.3775-4.2594v-8.5188l7.3775-4.2594 7.3775 4.2594z" clip-path="url(#clipPath2242)" style="paint-order:stroke fill markers"/>
    <path d="m204.32-17.175-7.3775 4.2594-7.3775-4.2594v-8.5188l7.3775-4.2594 7.3775 4.2594z" clip-path="url(#clipPath2238)" style="paint-order:stroke fill markers"/>
    <path d="m211.7-29.953-7.3775 4.2594-7.3775-4.2594v-8.5188l7.3775-4.2594 7.3775 4.2594z" clip-path="url(#clipPath2234)" style="paint-order:stroke fill markers"/>
    <path d="m219.07-42.731-7.3775 4.2594-7.3775-4.2594v-8.5188l7.3775-4.2594 7.3775 4.2594z" clip-path="url(#clipPath2230)" style="paint-order:stroke fill markers"/>
    <path d="m226.45-55.51-7.3775 4.2594-7.3775-4.2594v-8.5188l7.3775-4.2594 7.3775 4.2594z" clip-path="url(#clipPath2226)" style="paint-order:stroke fill markers"/>
    <path d="m189.56 8.3812-7.3775 4.2594-7.3775-4.2594v-8.5188l7.3775-4.2594 7.3775 4.2594z" clip-path="url(#clipPath2222)" style="paint-order:stroke fill markers"/>
    <path d="m196.94-4.397-7.3775 4.2594-7.3775-4.2594v-8.5188l7.3775-4.2594 7.3775 4.2594z" clip-path="url(#clipPath2218)" style="paint-order:stroke fill markers"/>
    <path d="m196.94 21.159-7.3775 4.2594-7.3775-4.2594v-8.5188l7.3775-4.2594 7.3775 4.2594z" clip-path="url(#clipPath2214)" style="paint-order:stroke fill markers"/>
    <path d="m204.32 8.3812-7.3775 4.2594-7.3775-4.2594v-8.5188l7.3775-4.2594 7.3775 4.2594z" clip-path="url(#clipPath2210)" style="paint-order:stroke fill markers"/>
    <path d="m211.7-4.397-7.3775 4.2594-7.3775-4.2594v-8.5188l7.3775-4.2594 7.3775 4.2594z" clip-path="url(#clipPath2206)" style="paint-order:stroke fill markers"/>
    <path d="m219.07-17.175-7.3775 4.2594-7.3775-4.2594v-8.5188l7.3775-4.2594 7.3775 4.2594z" clip-path="url(#clipPath2202)" style="paint-order:stroke fill markers"/>
    <path d="m226.45-29.953-7.3775 4.2594-7.3775-4.2594v-8.5188l7.3775-4.2594 7.3775 4.2594z" clip-path="url(#clipPath2198)" style="paint-order:stroke fill markers"/>
    <path d="m233.83-42.731-7.3775 4.2594-7.3775-4.2594v-8.5188l7.3775-4.2594 7.3775 4.2594z" clip-path="url(#clipPath2194)" style="paint-order:stroke fill markers"/>
    <path d="m152.68-4.397-7.3775 4.2594-7.3775-4.2594v-8.5188l7.3775-4.2594 7.3775 4.2594z" clip-path="url(#clipPath2190)" style="paint-order:stroke fill markers"/>
    <path d="m160.05-17.175-7.3775 4.2594-7.3775-4.2594v-8.5188l7.3775-4.2594 7.3775 4.2594z" clip-path="url(#clipPath2186)" style="paint-order:stroke fill markers"/>
    <path d="m160.05 8.3812-7.3775 4.2594-7.3775-4.2594v-8.5188l7.3775-4.2594 7.3775 4.2594z" clip-path="url(#clipPath2182)" style="paint-order:stroke fill markers"/>
    <path d="m167.43-4.397-7.3775 4.2594-7.3775-4.2594v-8.5188l7.3775-4.2594 7.3775 4.2594z" clip-path="url(#clipPath2178)" style="paint-order:stroke fill markers"/>
    <path d="m174.81-17.175-7.3775 4.2594-7.3775-4.2594v-8.5188l7.3775-4.2594 7.3775 4.2594z" clip-path="url(#clipPath2174)" style="paint-order:stroke fill markers"/>
    <path d="m182.19-29.953-7.3775 4.2594-7.3775-4.2594v-8.5188l7.3775-4.2594 7.3775 4.2594z" clip-path="url(#clipPath2170)" style="paint-order:stroke fill markers"/>
    <path d="m145.3 33.938-7.3775 4.2594-7.3775-4.2594v-8.5188l7.3775-4.2594 7.3775 4.2594z" style="paint-order:stroke fill markers"/>
    <path d="m152.68 21.159-7.3775 4.2594-7.3775-4.2594v-8.5188l7.3775-4.2594 7.3775 4.2594z" clip-path="url(#clipPath2166)" style="paint-order:stroke fill markers"/>
    <path d="m152.68 46.716-7.3775 4.2594-7.3775-4.2594v-8.5188l7.3775-4.2594 7.3775 4.2594z" clip-path="url(#clipPath2162)" style="paint-order:stroke fill markers"/>
    <path d="m160.05 33.938-7.3775 4.2594-7.3775-4.2594v-8.5188l7.3775-4.2594 7.3775 4.2594z" clip-path="url(#clipPath2158)" style="paint-order:stroke fill markers"/>
    <path d="m167.43 21.159-7.3775 4.2594-7.3775-4.2594v-8.5188l7.3775-4.2594 7.3775 4.2594z" clip-path="url(#clipPath2154)" style="paint-order:stroke fill markers"/>
    <path d="m174.81 8.3812-7.3775 4.2594-7.3775-4.2594v-8.5188l7.3775-4.2594 7.3775 4.2594z" clip-path="url(#clipPath2150)" style="paint-order:stroke fill markers"/>
    <path d="m182.19-4.397-7.3775 4.2594-7.3775-4.2594v-8.5188l7.3775-4.2594 7.3775 4.2594z" clip-path="url(#clipPath2146)" style="paint-order:stroke fill markers"/>
    <path d="m189.56-17.175-7.3775 4.2594-7.3775-4.2594v-8.5188l7.3775-4.2594 7.3775 4.2594z" clip-path="url(#clipPath2142)" style="paint-order:stroke fill markers"/>
    <path d="m226.45-4.397-7.3775 4.2594-7.3775-4.2594v-8.5188l7.3775-4.2594 7.3775 4.2594z" clip-path="url(#clipPath2138)" style="paint-order:stroke fill markers"/>
    <path d="m233.83-17.175-7.3775 4.2594-7.3775-4.2594v-8.5188l7.3775-4.2594 7.3775 4.2594z" clip-path="url(#clipPath2134)" style="paint-order:stroke fill markers"/>
    <path d="m233.83 8.3812-7.3775 4.2594-7.3775-4.2594v-8.5188l7.3775-4.2594 7.3775 4.2594z" clip-path="url(#clipPath2130)" style="paint-order:stroke fill markers"/>
    <path d="m241.21-4.397-7.3775 4.2594-7.3775-4.2594v-8.5188l7.3775-4.2594 7.3775 4.2594z" clip-path="url(#clipPath2126)" style="paint-order:stroke fill markers"/>
    <path d="m248.58-17.175-7.3775 4.2594-7.3775-4.2594v-8.5188l7.3775-4.2594 7.3775 4.2594z" clip-path="url(#clipPath2122)" style="paint-order:stroke fill markers"/>
    <path d="m255.96-29.953-7.3775 4.2594-7.3775-4.2594v-8.5188l7.3775-4.2594 7.3775 4.2594z" clip-path="url(#clipPath2118)" style="paint-order:stroke fill markers"/>
    <path d="m219.07 33.938-7.3775 4.2594-7.3775-4.2594v-8.5188l7.3775-4.2594 7.3775 4.2594z" clip-path="url(#clipPath2114)" style="paint-order:stroke fill markers"/>
    <path d="m226.45 21.159-7.3775 4.2594-7.3775-4.2594v-8.5188l7.3775-4.2594 7.3775 4.2594z" clip-path="url(#clipPath2110)" style="paint-order:stroke fill markers"/>
    <path d="m226.45 46.716-7.3775 4.2594-7.3775-4.2594v-8.5188l7.3775-4.2594 7.3775 4.2594z" clip-path="url(#clipPath2106)" style="paint-order:stroke fill markers"/>
    <path d="m233.83 33.938-7.3775 4.2594-7.3775-4.2594v-8.5188l7.3775-4.2594 7.3775 4.2594z" clip-path="url(#clipPath2102)" style="paint-order:stroke fill markers"/>
    <path d="m241.21 21.159-7.3775 4.2594-7.3775-4.2594v-8.5188l7.3775-4.2594 7.3775 4.2594z" clip-path="url(#clipPath2098)" style="paint-order:stroke fill markers"/>
    <path d="m248.58 8.3812-7.3775 4.2594-7.3775-4.2594v-8.5188l7.3775-4.2594 7.3775 4.2594z" clip-path="url(#clipPath2094)" style="paint-order:stroke fill markers"/>
    <path d="m255.96-4.397-7.3775 4.2594-7.3775-4.2594v-8.5188l7.3775-4.2594 7.3775 4.2594z" clip-path="url(#clipPath2090)" style="paint-order:stroke fill markers"/>
    <path d="m263.34-17.175-7.3775 4.2594-7.3775-4.2594v-8.5188l7.3775-4.2594 7.3775 4.2594z" clip-path="url(#clipPath2086)" style="paint-order:stroke fill markers"/>
    <path d="m101.55-49.432-7.3775 4.2594-7.3775-4.2594v-8.5188l7.3775-4.2594 7.3775 4.2594z" style="paint-order:stroke fill markers"/>
    <path d="m108.93-62.21-7.3775 4.2594-7.3775-4.2594v-8.5188l7.3775-4.2594 7.3775 4.2594z" style="paint-order:stroke fill markers"/>
    <path d="m52.369-70.256-7.3775 4.2594-7.3775-4.2594v-8.5188l7.3775-4.2594 7.3775 4.2594z" style="paint-order:stroke fill markers"/>
    <path d="m116.31-49.432-7.3775 4.2594-7.3775-4.2594v-8.5188l7.3775-4.2594 7.3775 4.2594z" style="paint-order:stroke fill markers"/>
    <path d="m123.68-62.21-7.3775 4.2594-7.3775-4.2594v-8.5188l7.3775-4.2594 7.3775 4.2594z" style="paint-order:stroke fill markers"/>
    <path d="m37.614-44.7-7.3775 4.2594-7.3775-4.2594v-8.5188l7.3775-4.2594 7.3775 4.2594z" style="paint-order:stroke fill markers"/>
    <path d="m44.992-57.478-7.3775 4.2594-7.3775-4.2594v-8.5188l7.3775-4.2594 7.3775 4.2594z" style="paint-order:stroke fill markers"/>
    <path d="m44.992-31.922-7.3775 4.2594-7.3775-4.2594v-8.5188l7.3775-4.2594 7.3775 4.2594z" style="paint-order:stroke fill markers"/>
    <path d="m52.369-44.7-7.3775 4.2594-7.3775-4.2594v-8.5188l7.3775-4.2594 7.3775 4.2594z" style="paint-order:stroke fill markers"/>
    <path d="m59.747-57.478-7.3775 4.2594-7.3775-4.2594v-8.5188l7.3775-4.2594 7.3775 4.2594z" style="paint-order:stroke fill markers"/>
    <path d="m67.124-70.256-7.3775 4.2594-7.3775-4.2594v-8.5188l7.3775-4.2594 7.3775 4.2594z" style="paint-order:stroke fill markers"/>
    <path d="m131.06-49.432-7.3775 4.2594-7.3775-4.2594v-8.5188l7.3775-4.2594 7.3775 4.2594z" style="paint-order:stroke fill markers"/>
    <path d="m138.44-62.21-7.3775 4.2594-7.3775-4.2594v-8.5188l7.3775-4.2594 7.3775 4.2594z" style="paint-order:stroke fill markers"/>
   </g>
   <rect x="38.441" y="147.39" width="157.44" height="104.52" stroke="#fff" stroke-width="0.5" style="paint-order:stroke fill markers"/>
   <g stroke="#525252" stroke-width="0.5">
    <path d="m136.4 223.36-7.3775 4.2594-7.3775-4.2594v-8.5188l7.3775-4.2594 7.3775 4.2594z" style="paint-order:stroke fill markers"/>
    <path d="m143.78 210.59-7.3775 4.2594-7.3775-4.2594v-8.5188l7.3775-4.2594 7.3775 4.2594z" style="paint-order:stroke fill markers"/>
    <path d="m143.78 236.14-7.3775 4.2594-7.3775-4.2594v-8.5188l7.3775-4.2594 7.3775 4.2594z" style="paint-order:stroke fill markers"/>
    <path d="m151.16 223.36-7.3775 4.2594-7.3775-4.2594v-8.5188l7.3775-4.2594 7.3775 4.2594z" style="paint-order:stroke fill markers"/>
    <path d="m158.54 210.59-7.3775 4.2594-7.3775-4.2594v-8.5188l7.3775-4.2594 7.3775 4.2594z" style="paint-order:stroke fill markers"/>
    <path d="m165.91 197.81-7.3775 4.2594-7.3775-4.2594v-8.5188l7.3775-4.2594 7.3775 4.2594z" style="paint-order:stroke fill markers"/>
    <path d="m129.03 261.7-7.3775 4.2594-7.3775-4.2594v-8.5188l7.3775-4.2594 7.3775 4.2594z" style="paint-order:stroke fill markers"/>
    <path d="m136.4 248.92-7.3775 4.2594-7.3775-4.2594v-8.5188l7.3775-4.2594 7.3775 4.2594z" style="paint-order:stroke fill markers"/>
    <path d="m136.4 274.48-7.3775 4.2594-7.3775-4.2594v-8.5188l7.3775-4.2594 7.3775 4.2594z" style="paint-order:stroke fill markers"/>
    <path d="m143.78 261.7-7.3775 4.2594-7.3775-4.2594v-8.5188l7.3775-4.2594 7.3775 4.2594z" style="paint-order:stroke fill markers"/>
    <path d="m151.16 248.92-7.3775 4.2594-7.3775-4.2594v-8.5188l7.3775-4.2594 7.3775 4.2594z" style="paint-order:stroke fill markers"/>
    <path d="m158.54 236.14-7.3775 4.2594-7.3775-4.2594v-8.5188l7.3775-4.2594 7.3775 4.2594z" style="paint-order:stroke fill markers"/>
    <path d="m165.91 223.36-7.3775 4.2594-7.3775-4.2594v-8.5188l7.3775-4.2594 7.3775 4.2594z" style="paint-order:stroke fill markers"/>
    <path d="m173.29 210.59-7.3775 4.2594-7.3775-4.2594v-8.5188l7.3775-4.2594 7.3775 4.2594z" style="paint-order:stroke fill markers"/>
    <path d="m180.67 197.81-7.3775 4.2594-7.3775-4.2594v-8.5188l7.3775-4.2594 7.3775 4.2594z" style="paint-order:stroke fill markers"/>
    <path d="m188.05 185.03-7.3775 4.2594-7.3775-4.2594v-8.5188l7.3775-4.2594 7.3775 4.2594z" style="paint-order:stroke fill markers"/>
    <path d="m188.05 210.59-7.3775 4.2594-7.3775-4.2594v-8.5188l7.3775-4.2594 7.3775 4.2594z" style="paint-order:stroke fill markers"/>
    <path d="m195.42 197.81-7.3775 4.2594-7.3775-4.2594v-8.5188l7.3775-4.2594 7.3775 4.2594z" style="paint-order:stroke fill markers"/>
    <path d="m202.8 185.03-7.3775 4.2594-7.3775-4.2594v-8.5188l7.3775-4.2594 7.3775 4.2594z" style="paint-order:stroke fill markers"/>
    <path d="m210.18 172.25-7.3775 4.2594-7.3775-4.2594v-8.5188l7.3775-4.2594 7.3775 4.2594z" style="paint-order:stroke fill markers"/>
    <path d="m173.29 236.14-7.3775 4.2594-7.3775-4.2594v-8.5188l7.3775-4.2594 7.3775 4.2594z" style="paint-order:stroke fill markers"/>
    <path d="m180.67 223.36-7.3775 4.2594-7.3775-4.2594v-8.5188l7.3775-4.2594 7.3775 4.2594z" style="paint-order:stroke fill markers"/>
    <path d="m180.67 248.92-7.3775 4.2594-7.3775-4.2594v-8.5188l7.3775-4.2594 7.3775 4.2594z" style="paint-order:stroke fill markers"/>
    <path d="m188.05 236.14-7.3775 4.2594-7.3775-4.2594v-8.5188l7.3775-4.2594 7.3775 4.2594z" style="paint-order:stroke fill markers"/>
    <path d="m195.42 223.36-7.3775 4.2594-7.3775-4.2594v-8.5188l7.3775-4.2594 7.3775 4.2594z" style="paint-order:stroke fill markers"/>
    <path d="m202.8 210.59-7.3775 4.2594-7.3775-4.2594v-8.5188l7.3775-4.2594 7.3775 4.2594z" style="paint-order:stroke fill markers"/>
    <path d="m210.18 197.81-7.3775 4.2594-7.3775-4.2594v-8.5188l7.3775-4.2594 7.3775 4.2594z" style="paint-order:stroke fill markers"/>
    <path d="m217.56 185.03-7.3775 4.2594-7.3775-4.2594v-8.5188l7.3775-4.2594 7.3775 4.2594z" style="paint-order:stroke fill markers"/>
    <path d="m57.689 172.25-7.3775 4.2594-7.3775-4.2594v-8.5188l7.3775-4.2594 7.3775 4.2594z" style="paint-order:stroke fill markers"/>
    <path d="m65.067 159.48-7.3775 4.2594-7.3775-4.2594v-8.5188l7.3775-4.2594 7.3775 4.2594z" style="paint-order:stroke fill markers"/>
    <path d="m57.689 197.81-7.3775 4.2594-7.3775-4.2594v-8.5188l7.3775-4.2594 7.3775 4.2594z" style="paint-order:stroke fill markers"/>
    <path d="m65.067 185.03-7.3775 4.2594-7.3775-4.2594v-8.5188l7.3775-4.2594 7.3775 4.2594z" style="paint-order:stroke fill markers"/>
    <path d="m72.444 172.25-7.3775 4.2594-7.3775-4.2594v-8.5188l7.3775-4.2594 7.3775 4.2594z" style="paint-order:stroke fill markers"/>
    <path d="m65.067 210.59-7.3775 4.2594-7.3775-4.2594v-8.5188l7.3775-4.2594 7.3775 4.2594z" style="paint-order:stroke fill markers"/>
    <path d="m72.444 197.81-7.3775 4.2594-7.3775-4.2594v-8.5188l7.3775-4.2594 7.3775 4.2594z" style="paint-order:stroke fill markers"/>
    <path d="m72.444 223.37-7.3775 4.2594-7.3775-4.2594v-8.5188l7.3775-4.2594 7.3775 4.2594z" style="paint-order:stroke fill markers"/>
    <path d="m79.821 210.59-7.3775 4.2594-7.3775-4.2594v-8.5188l7.3775-4.2594 7.3775 4.2594z" style="paint-order:stroke fill markers"/>
    <path d="m87.199 197.81-7.3775 4.2594-7.3775-4.2594v-8.5188l7.3775-4.2594 7.3775 4.2594z" style="paint-order:stroke fill markers"/>
    <path d="m94.576 185.03-7.3775 4.2594-7.3775-4.2594v-8.5188l7.3775-4.2594 7.3775 4.2594z" style="paint-order:stroke fill markers"/>
    <path d="m57.689 248.92-7.3775 4.2594-7.3775-4.2594v-8.5188l7.3775-4.2594 7.3775 4.2594z" style="paint-order:stroke fill markers"/>
    <path d="m65.067 236.14-7.3775 4.2594-7.3775-4.2594v-8.5188l7.3775-4.2594 7.3775 4.2594z" style="paint-order:stroke fill markers"/>
    <path d="m65.067 261.7-7.3775 4.2594-7.3775-4.2594v-8.5188l7.3775-4.2594 7.3775 4.2594z" style="paint-order:stroke fill markers"/>
    <path d="m72.444 248.92-7.3775 4.2594-7.3775-4.2594v-8.5188l7.3775-4.2594 7.3775 4.2594z" style="paint-order:stroke fill markers"/>
    <path d="m79.821 236.14-7.3775 4.2594-7.3775-4.2594v-8.5188l7.3775-4.2594 7.3775 4.2594z" style="paint-order:stroke fill markers"/>
    <path d="m87.199 223.37-7.3775 4.2594-7.3775-4.2594v-8.5188l7.3775-4.2594 7.3775 4.2594z" style="paint-order:stroke fill markers"/>
    <path d="m94.576 210.59-7.3775 4.2594-7.3775-4.2594v-8.5188l7.3775-4.2594 7.3775 4.2594z" style="paint-order:stroke fill markers"/>
    <path d="m101.95 197.81-7.3775 4.2594-7.3775-4.2594v-8.5188l7.3775-4.2594 7.3775 4.2594z" style="paint-order:stroke fill markers"/>
   </g>
  </g>
  <g fill="none" stroke="#525252" stroke-width="0.5">
   <path transform="translate(130.11 108.04)" d="m196.94-29.953-7.3775 4.2594-7.3775-4.2594v-8.5188l7.3775-4.2594 7.3775 4.2594z" clip-path="url(#clipPath2246-1)" style="paint-order:stroke fill markers"/>
   <path transform="translate(130.11 108.04)" d="m204.32-17.175-7.3775 4.2594-7.3775-4.2594v-8.5188l7.3775-4.2594 7.3775 4.2594z" clip-path="url(#clipPath2238-4)" style="paint-order:stroke fill markers"/>
   <path transform="translate(130.11 108.04)" d="m211.7-29.953-7.3775 4.2594-7.3775-4.2594v-8.5188l7.3775-4.2594 7.3775 4.2594z" clip-path="url(#clipPath2234-0)" style="paint-order:stroke fill markers"/>
   <path transform="translate(130.11 108.04)" d="m196.94-4.397-7.3775 4.2594-7.3775-4.2594v-8.5188l7.3775-4.2594 7.3775 4.2594z" clip-path="url(#clipPath2218-0)" style="paint-order:stroke fill markers"/>
   <path transform="translate(130.11 108.04)" d="m211.7-4.397-7.3775 4.2594-7.3775-4.2594v-8.5188l7.3775-4.2594 7.3775 4.2594z" clip-path="url(#clipPath2206-9)" style="paint-order:stroke fill markers"/>
   <path transform="translate(130.11 108.04)" d="m219.07-17.175-7.3775 4.2594-7.3775-4.2594v-8.5188l7.3775-4.2594 7.3775 4.2594z" clip-path="url(#clipPath2202-9)" style="paint-order:stroke fill markers"/>
   <path transform="translate(130.11 108.04)" d="m189.56-17.175-7.3775 4.2594-7.3775-4.2594v-8.5188l7.3775-4.2594 7.3775 4.2594z" clip-path="url(#clipPath2142-0)" style="paint-order:stroke fill markers"/>
  </g>
 </g>
</svg>
