<?xml version="1.0" encoding="UTF-8"?>
<svg width="100" height="100" version="1.1" viewBox="0 0 26.458 26.458" xmlns="http://www.w3.org/2000/svg" xmlns:cc="http://creativecommons.org/ns#" xmlns:dc="http://purl.org/dc/elements/1.1/" xmlns:rdf="http://www.w3.org/1999/02/22-rdf-syntax-ns#">
 <metadata>
  <rdf:RDF>
   <cc:Work rdf:about="">
    <dc:format>image/svg+xml</dc:format>
    <dc:type rdf:resource="http://purl.org/dc/dcmitype/StillImage"/>
    <dc:title/>
   </cc:Work>
  </rdf:RDF>
 </metadata>
 <g transform="translate(-2.7903 -.26129)">
  <circle cx="-33.642" cy="8.3174" r="13.229" fill="#808080" style="paint-order:stroke fill markers"/>
  <path d="m-24.926 17.033-5.5257 3.1903h-6.3805l-5.5257-3.1903-3.1903-5.5257v-6.3805l3.1903-5.5257 5.5257-3.1903 6.3805-1e-7 5.5257 3.1903 3.1903 5.5257v6.3805z" fill="#999" style="paint-order:stroke fill markers"/>
  <text x="-42.995003" y="18.82556" fill="#0ea5e9" font-family="'Averia Serif Libre'" font-size="26.458px" stroke-width=".26458" style="line-height:1.25" xml:space="preserve"><tspan x="-42.995003" y="18.82556" fill="#0ea5e9" font-family="'Averia Serif Libre'" stroke-width=".26458">V</tspan></text>
  <circle cx="16.019" cy="13.49" r="13.229" fill="#808080" style="paint-order:stroke fill markers"/>
  <path d="m24.735 22.206-5.5257 3.1903h-6.3805l-5.5257-3.1903-3.1903-5.5257v-6.3805l3.1903-5.5257 5.5257-3.1903h6.3805l5.5257 3.1903 3.1903 5.5257v6.3805z" fill="#999" style="paint-order:stroke fill markers"/>
  <text x="6.6660724" y="23.998589" fill="#0ea5e9" font-family="'Averia Serif Libre'" font-size="26.458px" stroke-width=".26458" style="line-height:1.25" xml:space="preserve"><tspan x="6.6660724" y="23.998589" fill="#0ea5e9" font-family="'Averia Serif Libre'" stroke-width=".26458">V</tspan></text>
 </g>
</svg>
